<?xml version="1.0" encoding="utf-8"?>
<!-- Generator: Adobe Illustrator 18.0.0, SVG Export Plug-In . SVG Version: 6.00 Build 0)  -->
<!DOCTYPE svg PUBLIC "-//W3C//DTD SVG 1.1//EN" "http://www.w3.org/Graphics/SVG/1.1/DTD/svg11.dtd">
<svg version="1.1" id="Шар_1" xmlns="http://www.w3.org/2000/svg" xmlns:xlink="http://www.w3.org/1999/xlink" x="0px" y="0px" width="300" height="250"
	 viewBox="0 0 300 250" style="enable-background:new 0 0 300 250;" xml:space="preserve">
<style type="text/css">
	.st0{fill:#FD5B00;}
	.st1{fill:#FC7A00;}
	.st2{fill:#FF0000;}
	.st3{fill:#FFFFFF;}
	.st4{fill:url(#SVGID_5_);}
	.st5{fill:#484849;}
	.st6{fill:#2A5092;}
	.st7{fill:#C63A29;}
	.st8{fill:#F84933;}
	.st9{fill:#476BB7;}
	.st10{fill:#5986E5;}
	.st11{fill:#CC7A24;}
	.st12{fill:#FF982D;}
	.st13{fill:#54779C;}
	.st14{fill:#6995C3;}
	.st15{fill:#D6D6D6;}
	.st16{fill:#FF1314;}
	.st17{fill:url(#SVGID_6_);}
	.st18{fill:url(#SVGID_7_);}
	.st19{fill:#A94024;}
	.st20{fill:url(#SVGID_8_);}
	.st21{fill:#958EC3;}
	.st22{fill:#333333;}
	.st23{fill:#BEBEBE;}
	.st24{fill:url(#SVGID_9_);}
	.st25{fill:#CDCDCD;}
	.st26{fill:#16AB1B;}
	.st27{fill:#FF3939;}
	.st28{fill:url(#SVGID_10_);}
	.st29{filter:url(#Adobe_OpacityMaskFilter);}
	.st30{opacity:0.25;mask:url(#SVGID_1_);}
	.st31{fill:url(#SVGID_11_);}
	.st32{fill:#444444;}
	.st33{fill:#A1AEC5;}
	.st34{fill:#222222;}
	.st35{fill:url(#SVGID_12_);}
	.st36{fill:none;stroke:#B8B8B8;stroke-miterlimit:10;}
	.st37{filter:url(#Adobe_OpacityMaskFilter_1_);}
	.st38{enable-background:new    ;}
	.st39{opacity:0.15;mask:url(#SVGID_4_);}
	.st40{fill:none;stroke:#000000;stroke-miterlimit:10;}
	.st41{filter:url(#Adobe_OpacityMaskFilter_2_);}
	.st42{opacity:0.15;mask:url(#SVGID_3_);}
	.st43{fill:url(#SVGID_13_);}
	.st44{filter:url(#Adobe_OpacityMaskFilter_3_);}
	.st45{opacity:0.25;mask:url(#SVGID_2_);}
	.st46{fill:#089418;}
</style>
<g>
	<path class="st0" d="M47.5,2.9H35.3c-0.8,0-1.4,0.6-1.4,1.4v17.2c0,0.8,0.6,1.4,1.4,1.4h12.2c0.8,0,1.4-0.6,1.4-1.4V4.3
		C48.9,3.5,48.3,2.9,47.5,2.9z M47.9,21.5c0,0.2-0.2,0.4-0.4,0.4H35.3c-0.2,0-0.4-0.2-0.4-0.4V4.3c0-0.2,0.2-0.4,0.4-0.4h12.2
		c0.2,0,0.4,0.2,0.4,0.4V21.5z"/>
	<path class="st0" d="M46,5h-9c-0.6,0-1.1,0.4-1.1,1v11.7c0,0.6,0.5,1.1,1.1,1.1h8.7c0.6,0,1.1-0.5,1.1-1.1V6C46.9,5.4,46.6,5,46,5z
		 M46,6v12c0,0.1,0.1,0,0,0h-9c-0.1,0,0,0.1,0,0L36.9,6c0-0.1,0,0,0.1,0"/>
	<rect x="40" y="20" class="st0" width="3" height="1"/>
</g>
<path class="st0" d="M77,17V7H61v10h-2c0,0,0,0.2,0,1s0.9,2,2,2h16c1.1,0,2-1.2,2-2s0-1,0-1H77z M62,8h14v9H62V8z M71,19h-4v-1h4V19
	z"/>
<g>
	<path class="st0" d="M95.9,2.9c-5.5,0-10,4.5-10,10s4.5,10,10,10s10-4.5,10-10S101.4,2.9,95.9,2.9z M95.9,21.9c-5,0-9-4-9-9
		s4-9,9-9s9,4,9,9S100.9,21.9,95.9,21.9z"/>
	<polygon class="st0" points="94.1,17.6 98.6,13.1 94.1,8.6 	"/>
</g>
<g>
	<rect x="123" y="9" class="st0" width="2" height="1"/>
	<rect x="123" y="11" class="st0" width="2" height="1"/>
	<rect x="123" y="13" class="st0" width="2" height="1"/>
	<rect x="123" y="15" class="st0" width="2" height="1"/>
	<rect x="123" y="17" class="st0" width="2" height="1"/>
	<path class="st0" d="M130.6,3h-0.4C130.1,3,112,3,112,3l2.9,7.3l1.1,3V23h12V6h1v10c0,0.7,0.5,1.3,1.2,1.3h0.4
		c0.7,0,1.4-0.6,1.4-1.3V4.6C132,3.9,131.3,3,130.6,3z M129.9,4c0,0,0.1,0,0.3,0h0.4c0.2,0,0.4,0.4,0.4,0.6V16
		c0,0.2-0.2,0.3-0.4,0.3h-0.4c-0.2,0-0.2-0.1-0.2-0.3V5h-3v15h-10v-6.7L113.9,4"/>
</g>
<g>
	<rect x="141" y="7" class="st0" width="3" height="1"/>
	<rect x="141" y="9" class="st0" width="3" height="1"/>
	<rect x="141" y="11" class="st0" width="3" height="1"/>
	<path class="st0" d="M158,9V8c0-0.5-0.4-1-1-1h-2c0,0-0.1,0-0.1,0c-0.2-0.6-0.8-1-1.4-1h-1c-0.2,0-0.4,0-0.6,0.1
		c-0.2-0.6-0.8-1.1-1.4-1.1h-10c-0.8,0-1.5,0.7-1.5,1.5v6c0,0.8,0.7,1.5,1.5,1.5h2.5v6.5c0,0.8,0.7,1.5,1.5,1.5h1
		c0.8,0,1.5-0.7,1.5-1.5V17c0.2,0.1,0.3,0,0.5,0c0.8,0,1.5-0.7,1.5-1.5v-1c0-0.2,0.1-0.3,0-0.5h1.5c0.7,0,1.3-0.5,1.4-1.1
		c0.2,0.1,0.4,0.1,0.6,0.1h1c0.7,0,1.2-0.4,1.4-1c0,0,0.1,0,0.1,0h2c0.6,0,1-0.5,1-1v-1h3V9H158z M146,15.5v5c0,0.3-0.2,0.5-0.5,0.5
		h-1c-0.3,0-0.5-0.2-0.5-0.5v-6c0-0.3,0.2-0.5,0.5-0.5h1c0.3,0,0.5,0.2,0.5,0.5V15.5z M148,15.5c0,0.3-0.2,0.5-0.5,0.5
		s-0.5-0.2-0.5-0.5v-1c0-0.3,0.2-0.5,0.5-0.5s0.5,0.2,0.5,0.5V15.5z M151,12.5c0,0.3-0.2,0.5-0.5,0.5h-10c-0.3,0-0.5-0.2-0.5-0.5v-6
		c0-0.3,0.2-0.5,0.5-0.5h10c0.3,0,0.5,0.2,0.5,0.5V12.5z M154,11.5c0,0.3-0.2,0.5-0.5,0.5h-1c-0.3,0-0.5-0.2-0.5-0.5v-4
		c0-0.3,0.2-0.5,0.5-0.5h1c0.3,0,0.5,0.2,0.5,0.5V11.5z"/>
</g>
<path class="st0" d="M212.9,11.3h-1l-0.8-1h1.8v-1h-2.5L209,7h-10l-1.6,2.3h-2.5v1h1.8l-0.8,1h-1c-0.6,0-1,0.9-1,1.6v7
	c0,0.8,0.7,1.4,1.5,1.4h1c0.7,0,1.2-0.3,1.4-1.3h1.1h10h1.1c0.2,1,0.8,1.3,1.4,1.3h1c0.8,0,1.5-0.6,1.5-1.4v-4v-1v-2
	C213.9,12.3,213.5,11.3,212.9,11.3z M199,8h10l1.9,3.3h-14L199,8z M194.9,14.3h3V16h-3V14.3z M199,17.3V19h-1h-1v0.4v0.5
	c0,0.3-0.2,0.4-0.5,0.4h-1c-0.3,0-0.5-0.1-0.5-0.4v-0.6V17h0.5h1.5h1c0.6-0.2,1-0.4,1-1.1V17.3z M207.9,19h-8v-4h8V19z M212.9,19.3
	v0.6c0,0.3-0.2,0.4-0.5,0.4h-1c-0.3,0-0.4-0.1-0.4-0.4v-0.5V19h-1.1h-1v-1.7v-1.4c0,0.7,0.4,0.9,1,1.1h1h1.5h0.5V19.3z M212.9,16h-3
	v-1.7h3V16z M209.9,13.3c-1,0-1,0.7-1,0.7h-10c0,0,0-0.7-1-0.7h-3c0-1,0-1,1-1h16c1,0,1,0,1,1H209.9z"/>
<g>
	<rect x="229" y="15" class="st0" width="1" height="2"/>
	<g>
		<path class="st0" d="M228,11h5v3h1v-4h-7v10h-3.8V8.9l7.2-5c0.2-0.2,0.5-0.2,0.7,0l7.2,5c0,0,0,1.8,0,3h1c0-1.3,0-3.2,0-3.2
			l-7.5-5.4c-0.6-0.6-1.5-0.6-2,0l-7.5,5.4v11.5c0,0.8,1,1.8,1.8,1.8h3h2v-1v-1h-1V11z"/>
		<path class="st0" d="M241.5,12.8C241.5,12.8,241.5,12.8,241.5,12.8C241.5,12.8,241.5,12.7,241.5,12.8c0-0.2-0.2-0.4-0.4-0.4
			c-0.1,0-0.3,0.4-0.4,0.5c-0.1,0.2-0.3,0.4-0.5,0.5c-0.4,0.3-0.8,0.6-1.3,0.7c-0.9,0.4-2,0.5-3,0.7c-0.5,0.1-1.1,0.2-1.6,0.3
			c-2.3,0.6-3.4,2.2-3.2,4.6c0,0.4,0.7,0.4,0.7,0c-0.1-1.3,0-2.5,1.1-3.3c0.9-0.6,2.1-0.8,3.1-0.9c1.7-0.3,3.6-0.6,4.9-1.8
			c0.1,1.9,0,4-0.9,5.7c-1.4,2.7-4.9,2.6-7.3,1.4c0.8-1,1.8-1.8,2.8-2.6c0.3-0.3,0-0.8-0.3-0.6c-2.4,1.8-3.4,1.9-4.2,4.8
			c-0.1,0.4,0.6,0.6,0.7,0.2c0.3-1.2-0.1-0.3,0.6-1.3c2.5,1.3,6,1.4,7.9-1C241.8,18.3,241.8,15.3,241.5,12.8z"/>
	</g>
</g>
<g>
	<path class="st0" d="M253.6,18.8c0.1,0.1,0.1,0.3,0,0.4l-0.5,0.5c-0.1,0.1-0.3,0.1-0.4,0l-3.2-3.2c-0.1-0.1-0.1-0.3,0-0.4l0.5-0.5
		c0.1-0.1,0.3-0.1,0.4,0L253.6,18.8z M266.7,4.2L266.7,4.2c0,0.2,0.1,0.4-0.1,0.6l-0.3,0.3l0.2,0.1c0.2,0.2,0.2,0.4,0,0.6
		C266.5,6,266.4,6,266.3,6S266,6,266,5.9l-0.1-0.1L265.6,6l0.1,0.1c0.2,0.2,0.2,0.4,0,0.6c-0.1,0.1-0.2,0.1-0.3,0.1
		c-0.1,0-0.2,0-0.3-0.1L265,6.6l-0.2,0.2c-0.2,0.2-0.5,0.3-0.8,0.2l-3.6,3.6c0.9,1.1,2.1,3,0.9,4.7c-0.8,1.2-2.1,1-2.9,1.7
		c-0.8,0.9-0.2,3.2-2.3,5.4c-0.8,0.8-1.7,1.2-2.7,1.2c-1.6,0-3.4-1-5-2.7c-2.7-2.6-3.7-5.6-1.5-7.8c2.1-2.2,4.5-1.5,5.4-2.3
		c0.8-0.7,0.5-2,1.7-2.8c0.5-0.4,1.1-0.5,1.6-0.5c1.2,0,2.3,0.8,3.1,1.4l3.6-3.6c-0.1-0.3,0-0.6,0.2-0.8l0.2-0.2l-0.1-0.1
		c-0.2-0.2-0.2-0.4,0-0.6c0.2-0.2,0.4-0.2,0.6,0l0.1,0.1l0.2-0.2l-0.1-0.1c-0.2-0.2-0.2-0.4,0-0.6c0.2-0.2,0.4-0.2,0.6,0l0.1,0.1
		l0.3-0.3c0.2-0.2,0.4-0.2,0.6-0.2h0c0.2,0,0.4,0.1,0.6,0.2l1,1.2C266.8,3.8,266.7,4,266.7,4.2z M259.7,11.3l-2.8,2.8
		c0,0.1,0,0.1,0,0.2c0,1.1-0.9,1.9-1.9,1.9s-1.9-0.9-1.9-1.9s0.9-1.9,1.9-1.9c0.1,0,0.1,0,0.2,0l2.8-2.8c-0.6-0.5-1.5-1.1-2.3-1.1
		c-0.4,0-0.7,0.1-1,0.3c-0.4,0.3-0.5,0.6-0.7,1.1c-0.2,0.5-0.4,1.1-0.9,1.6c-0.6,0.6-1.3,0.7-2.1,0.8c-1,0.2-2.1,0.4-3.2,1.5
		c-0.6,0.6-0.8,1.2-0.8,1.9c0,1.2,0.9,2.7,2.4,4.2c0,0,0,0,0,0c1.5,1.5,3,2.4,4.2,2.4c0.7,0,1.3-0.3,1.9-0.8
		c1.1-1.1,1.3-2.2,1.5-3.2c0.1-0.8,0.3-1.6,0.8-2.1c0.5-0.5,1.1-0.7,1.6-0.9c0.6-0.2,0.9-0.3,1.1-0.7
		C261.2,13.5,260.4,12.2,259.7,11.3z"/>
</g>
<g>
	<g>
		<g>
			<path class="st0" d="M17,35.5l-2.2,2c0,0-0.1,0-0.1,0c-0.1,0-0.2,0-0.2,0c-0.1,0-0.3,0-0.4,0.1c0,0,0,0-0.1,0L12.4,37
				c-0.2-0.1-0.5,0-0.5,0.2s0,0.5,0.2,0.5l1.9,0.7c0,0,0.1,0,0.1,0c0.1,0.1,0.3,0.2,0.5,0.2c0.3,0,0.6-0.3,0.6-0.6c0,0,0-0.1,0-0.1
				l2.3-2.1c0.1-0.1,0.1-0.3,0-0.4C17.3,35.4,17.2,35.4,17,35.5z"/>
			<path class="st0" d="M19.8,36.5c-0.2,0-0.2,0-0.2-0.1c-0.6-2.3-2.7-4-5.1-4c-2.9,0-5.3,2.4-5.3,5.3s2.4,5.3,5.3,5.3
				c2.6,0,4.8-1.8,5.2-4.3c0-0.1,0.2-0.1,0.2-0.1c0.4,0,0.6-0.5,0.6-1.1C20.5,37,20.2,36.5,19.8,36.5z M14.5,42
				c-2.4,0-4.3-1.9-4.3-4.3s1.9-4.3,4.3-4.3s4.3,1.9,4.3,4.3S16.8,42,14.5,42z"/>
		</g>
		<path class="st0" d="M17,31v-4h-5v4H17z"/>
		<path class="st0" d="M12,44v4h5v-4H12z"/>
	</g>
</g>
<path class="st0" d="M183.5,11.4c-0.6,0-1.3,0.2-1.9,0.3L179,7h2V6h-4v1h1l2,3h-9l-1-2h3V7h-6v1h2l2.3,4.3c-0.7-0.4-1.8-0.7-2.7-0.7
	c-2.8,0-5.1,2.2-5.1,5.1c0,2.8,2.3,4.9,5.1,4.9c2.5,0,4.6-1.5,5-4.5h1.4l5-6.9l0.9,1.9c-1.5,0.9-2.6,2.6-2.6,4.5
	c0,2.8,2.3,5.2,5.1,5.2s5.1-2.3,5.1-5.1C188.6,13.7,186.3,11.4,183.5,11.4z M168.6,20.6c-2.3,0-4.2-1.8-4.2-4.1s1.9-4.2,4.2-4.2
	c0.7,0,1.3,0,1.8,0.3L167,17h5.7C172.3,19,170.6,20.6,168.6,20.6z M172.8,16h-3.9l2.3-3.1C172.2,13.6,172.8,15,172.8,16z M174,16
	h-0.3c0-1-0.6-2.7-1.7-3.6V11h6L174,16z M183.5,20.8c-2.3,0-4.2-1.9-4.2-4.2c0-1.5,0.8-2.8,2-3.6l1.8,4.2l0.9-0.4l-1.8-4.2
	c0.4-0.1,0.9-0.2,1.3-0.2c2.3,0,4.2,1.9,4.2,4.2C187.6,18.9,185.8,20.8,183.5,20.8z"/>
<g>
	<path class="st0" d="M50,37.7c0,0,0-0.2,0-0.2c0-3-4-5.3-9-5.3s-9,2.4-9,5.4c0,0.1,0,0.2,0,0.2L32,38l0.2,4l0,0
		c0.2,0.4,0.9,1,1.3,1.4v0.3h0.3c1.6,1,4.2,2.1,7.2,2.1s5.6-1.1,7.2-2.1h0.3v-0.3c0.4-0.4,1.5-0.9,1.5-0.9L50,37.7L50,37.7z
		 M33.5,40.7v1.1c-0.1-0.1-0.1-0.1-0.2-0.1l-0.7,0.2l-0.1-2.7c0.3,0.5,0.7,0.5,1.3,1.5H33.5z M36.5,43.9c-0.8-0.3-1.5-0.6-2-1.1
		v-1.8c0.6,0.4,1.3,0.7,2,0.9V43.9z M40.5,44.7c-1.1,0-2.1-0.2-3-0.4v-1.9c0.9,0.2,1.9,0.4,3,0.4V44.7z M40.9,44.7h0.2
		C41.1,44.7,41,44.7,40.9,44.7C41,44.7,40.9,44.7,40.9,44.7z M44.5,44.3c-0.9,0.3-1.9,0.4-3,0.4v-2c1.1,0,2.1-0.2,3-0.4V44.3z
		 M47.5,42.9c-0.5,0.4-1.2,0.8-2,1.1v-1.9c0.7-0.2,1.4-0.6,2-0.9V42.9z M41.5,41.7L41.5,41.7l-1,0v0c-4.1-0.1-7.5-2-7.5-4.3
		c0-2.3,3.7-4.3,8-4.3s8,2,8,4.3C49,39.7,45.6,41.6,41.5,41.7z M49.5,41.7h-0.8c0,0-0.1,0-0.2,0.1v-1.1h-0.3c0.5-1,1-1,1.3-1.5V41.7
		z"/>
	<path class="st0" d="M35,38.3c0,0.1,0,0.3,0,0.4l1-0.8c0.2-1,1.4-1.8,2.9-2.3l1.7-1.3C37.4,34.6,35,36.3,35,38.3z"/>
	<path class="st0" d="M45.9,35.9c0,0.1,0.1,0.3,0.1,0.4c0,1.3-1.6,2.4-3.8,2.8l-1.3,1.1c3.5-0.1,6.2-1.8,6.2-3.9
		c0-0.4-0.1-0.7-0.3-1.1L45.9,35.9z"/>
</g>
<g>
	<g id="User">
		<g>
			<path class="st1" d="M68.9,41.9c2.8,0,5.1-2.8,5.1-6.2s-2.3-6.2-5.1-6.2c-1.4,0-2.7,0.7-3.6,1.9c-0.9,1.2-1.4,2.7-1.4,4.3
				C63.9,39.2,66.1,41.9,68.9,41.9z M68.9,30.7c2.2,0,3.9,2.3,3.9,5.1c0,2.8-1.8,5.1-3.9,5.1c-2.2,0-3.9-2.3-3.9-5.1
				C65,33,66.7,30.7,68.9,30.7z M72.9,40.8c-0.3,0-0.6,0.3-0.6,0.6s0.3,0.6,0.6,0.6c2.2,0,4.1,1,4.1,4c0,0-0.7,1-1,1H62
				c-0.3,0-1-1-1-1c0-3,1.8-4,4-4c0.3,0,0.5-0.1,0.5-0.4s-0.3-0.6-0.6-0.6c-2.8,0-5,2.3-5,5.1c0,0.9,1.1,2,2,2h14c0.9,0,2-1.1,2-2
				C78,43.2,75.6,40.8,72.9,40.8z"/>
		</g>
	</g>
</g>
<g>
	<path class="st1" d="M92,43h10c0.3,0,3-9,3-9v-1H95v1h9l-3,8h-8l-3-12h-5v1h4C89,31,91.7,43,92,43z"/>
	<circle class="st1" cx="94" cy="46" r="1.5"/>
	<circle class="st1" cx="101" cy="46" r="1.5"/>
</g>
<g>
	<path class="st2" d="M25.2,2.1l-7.5,0.2c-0.3,0-0.6,0.1-0.8,0.3L3.8,14.5c-0.3,0.3-0.3,0.9,0,1.3l7.3,7.3c0.3,0.3,0.9,0.3,1.3,0
		l13.2-11.9c0.2-0.2,0.3-0.5,0.3-0.8l0.1-7.6C25.9,2.5,25.6,2.2,25.2,2.1z M20.9,8.9c-1.1,0-2-0.9-2-2s0.9-2,2-2s2,0.9,2,2
		S22,8.9,20.9,8.9z"/>
	<g>
		<path class="st3" d="M11.5,13.6c0.9,0.8,1,2.2,0.2,3.1c-0.8,0.9-2.2,1-3.1,0.2c-0.9-0.8-1-2.2-0.2-3.1
			C9.2,12.9,10.6,12.8,11.5,13.6z M9.5,15.9c0.3,0.3,0.9,0.3,1.2-0.1c0.3-0.3,0.3-0.9-0.1-1.2c-0.3-0.3-0.9-0.3-1.2,0.1
			C9.1,15.1,9.1,15.6,9.5,15.9z M14.9,18.1l-0.7,0.8l-3-8.4l0.7-0.8L14.9,18.1z M17.6,11.7c0.9,0.8,1,2.2,0.2,3.1
			c-0.8,0.9-2.2,1-3.1,0.2c-0.9-0.8-1-2.2-0.2-3.1C15.3,11,16.7,10.9,17.6,11.7z M15.6,14c0.3,0.3,0.9,0.3,1.2-0.1
			c0.3-0.3,0.3-0.9-0.1-1.2c-0.3-0.3-0.9-0.3-1.2,0.1C15.2,13.1,15.2,13.7,15.6,14z"/>
	</g>
</g>
<linearGradient id="SVGID_5_" gradientUnits="userSpaceOnUse" x1="114.5833" y1="32.5288" x2="114.5833" y2="48.5288" gradientTransform="matrix(1 0 0 -1 0 74.5288)">
	<stop  offset="0" style="stop-color:#F15A24"/>
	<stop  offset="1" style="stop-color:#F7931E"/>
</linearGradient>
<path class="st4" d="M114.6,26c-3,0-5.5,2.4-5.5,5.2c0,2.6,2.7,5.2,4.3,7.7c1.1,1.7,1.2,3.1,1.2,3.1s0.1-1.3,1.2-3.1
	c1.6-2.6,4.3-5.2,4.3-7.7C120.1,28.4,117.6,26,114.6,26z M114.5,33.2c-1.3,0-2.3-1-2.3-2.1c0-1.2,1-2.1,2.3-2.1s2.3,1,2.3,2.1
	C116.8,32.3,115.8,33.2,114.5,33.2z"/>
<path class="st5" d="M128.6,26c-3,0-5.5,2.4-5.5,5.2c0,2.6,2.7,5.2,4.3,7.7c1.1,1.7,1.2,3.1,1.2,3.1s0.1-1.3,1.2-3.1
	c1.6-2.6,4.3-5.2,4.3-7.7C134.1,28.4,131.6,26,128.6,26z M128.5,33.2c-1.3,0-2.3-1-2.3-2.1c0-1.2,1-2.1,2.3-2.1c1.3,0,2.3,1,2.3,2.1
	C130.8,32.3,129.8,33.2,128.5,33.2z"/>
<path class="st6" d="M141.6,26c-3,0-5.5,2.4-5.5,5.2c0,2.6,2.7,5.2,4.3,7.7c1.1,1.7,1.2,3.1,1.2,3.1s0.1-1.3,1.2-3.1
	c1.6-2.6,4.3-5.2,4.3-7.7C147.1,28.4,144.6,26,141.6,26z M141.5,33.2c-1.3,0-2.3-1-2.3-2.1c0-1.2,1-2.1,2.3-2.1s2.3,1,2.3,2.1
	C143.8,32.3,142.8,33.2,141.5,33.2z"/>
<path class="st3" d="M155,26c-3,0-5.5,2.9-5.5,5.7c0,2.6,2.7,5.2,4.3,7.7c1.1,1.7,1.2,2.6,1.2,2.6s0.1-0.9,1.2-2.6
	c1.6-2.6,4.3-5.2,4.3-7.7C160.5,28.9,158.1,26,155,26z M154.9,33.7c-1.3,0-2.3-1-2.3-2.1s1-2.1,2.3-2.1s2.3,1,2.3,2.1
	S156.2,33.7,154.9,33.7z"/>
<g>
	<path class="st7" d="M1.1,82.9c0,1.7,1.3,3,3,3h26c1.7,0,3-1.3,3-3v-24c0-1.7-1.3-3-3-3h-26c-1.7,0-3,1.3-3,3V82.9z"/>
	<path class="st8" d="M1.1,80.9c0,1.7,1.3,3,3,3h26c1.7,0,3-1.3,3-3v-24c0-1.7-1.3-3-3-3h-26c-1.7,0-3,1.3-3,3V80.9z"/>
	<g>
		<g>
			<g>
				<path class="st7" d="M17.9,71.9l-1-0.8c-0.3-0.2-0.7-0.6-0.7-1.2c0-0.6,0.4-1,0.8-1.3c1.2-0.9,2.4-1.9,2.4-3.9
					c0-2.1-1.3-3.2-2-3.7h1.7l1.8-1.1h-5.5c-1.5,0-3.7,0.3-5.3,1.6c-1.2,1-1.8,2.4-1.8,3.7c0,2.1,1.7,4.3,4.7,4.3
					c0.3,0,0.6,0,0.9-0.1c-0.1,0.3-0.3,0.6-0.3,1.1c0,0.8,0.4,1.4,0.8,1.9c-1.3,0.1-3.6,0.2-5.4,1.3c-1.7,1-2.2,2.4-2.2,3.3
					c0,2,2,3.9,6,3.9c4.8,0,7.4-2.6,7.4-5.2C20.3,73.8,19.1,72.9,17.9,71.9z M14.2,68.8c-2.4,0-3.5-3-3.5-4.9c0-0.7,0.1-1.5,0.6-2
					c0.5-0.5,1.2-0.9,2-0.9c2.3,0,3.5,3.1,3.5,5c0,0.5-0.1,1.4-0.7,2C15.7,68.4,14.9,68.8,14.2,68.8z M14.3,79.8
					c-3,0-4.9-1.4-4.9-3.3c0-1.9,1.8-2.6,2.4-2.8c1.2-0.4,2.7-0.4,3-0.4c0.3,0,0.4,0,0.6,0c2.1,1.5,3.1,2.2,3.1,3.6
					C18.4,78.5,17,79.8,14.3,79.8z"/>
				<polygon class="st7" points="24.8,68.9 24.8,65.9 23.8,65.9 23.8,68.9 20.8,68.9 20.8,69.9 23.8,69.9 23.8,72.9 24.8,72.9 
					24.8,69.9 27.8,69.9 27.8,68.9 				"/>
			</g>
		</g>
	</g>
	<g>
		<g>
			<path class="st3" d="M17.9,70.9l-1-0.8c-0.3-0.2-0.7-0.6-0.7-1.2c0-0.6,0.4-1,0.8-1.3c1.2-0.9,2.4-1.9,2.4-3.9
				c0-2.1-1.3-3.2-2-3.7h1.7l1.8-1.1h-5.5c-1.5,0-3.7,0.3-5.3,1.6c-1.2,1-1.8,2.4-1.8,3.7c0,2.1,1.7,4.3,4.7,4.3
				c0.3,0,0.6,0,0.9-0.1c-0.1,0.3-0.3,0.6-0.3,1.1c0,0.8,0.4,1.4,0.8,1.9c-1.3,0.1-3.6,0.2-5.4,1.3c-1.7,1-2.2,2.4-2.2,3.3
				c0,2,2,3.9,6,3.9c4.8,0,7.4-2.6,7.4-5.2C20.3,72.8,19.1,71.9,17.9,70.9z M14.2,67.8c-2.4,0-3.5-3-3.5-4.9c0-0.7,0.1-1.5,0.6-2
				c0.5-0.5,1.2-0.9,2-0.9c2.3,0,3.5,3.1,3.5,5c0,0.5-0.1,1.4-0.7,2C15.7,67.4,14.9,67.8,14.2,67.8z M14.3,78.8
				c-3,0-4.9-1.4-4.9-3.3c0-1.9,1.8-2.6,2.4-2.8c1.2-0.4,2.7-0.4,3-0.4c0.3,0,0.4,0,0.6,0c2.1,1.5,3.1,2.2,3.1,3.6
				C18.4,77.5,17,78.8,14.3,78.8z"/>
			<polygon class="st3" points="24.8,67.9 24.8,64.9 23.8,64.9 23.8,67.9 20.8,67.9 20.8,68.9 23.8,68.9 23.8,71.9 24.8,71.9 
				24.8,68.9 27.8,68.9 27.8,67.9 			"/>
		</g>
	</g>
</g>
<g>
	<path class="st9" d="M55,82c0,1.7,1.3,3,3,3h26c1.7,0,3-1.3,3-3V58c0-1.7-1.3-3-3-3H58c-1.7,0-3,1.3-3,3V82z"/>
	<path class="st10" d="M55,80c0,1.7,1.3,3,3,3h26c1.7,0,3-1.3,3-3V56c0-1.7-1.3-3-3-3H58c-1.7,0-3,1.3-3,3V80z"/>
	<path class="st9" d="M73,79h-4V69h-3v-3h3v-2c0-3,0.4-5,4-5h3v3h-1.6c-1.4,0-1.5,1.3-1.5,2.3l0,1.7H76v3h-3V79z"/>
	<path class="st3" d="M73,78h-4V68h-3v-3h3v-2c0-3,0.4-5,4-5h3v3h-1.6c-1.4,0-1.5,1.3-1.5,2.3l0,1.7H76v3h-3V78z"/>
</g>
<g>
	<path class="st11" d="M109,82c0,1.7,1.3,3,3,3h26c1.7,0,3-1.3,3-3V58c0-1.7-1.3-3-3-3h-26c-1.7,0-3,1.3-3,3V82z"/>
	<path class="st12" d="M109,80c0,1.7,1.3,3,3,3h26c1.7,0,3-1.3,3-3V56c0-1.7-1.3-3-3-3h-26c-1.7,0-3,1.3-3,3V80z"/>
	<g>
		<g>
			<path class="st11" d="M130.5,71.4c0.4-0.4,0.4-0.9,0.1-1.5c-0.3-0.5-0.8-0.7-1.3-0.5c-0.3,0.1-0.5,0.2-0.7,0.4
				c-2.2,1.5-5.3,1.5-7.5-0.1c-0.1-0.1-0.2-0.1-0.3-0.2c-0.6-0.3-1.2-0.2-1.6,0.4c-0.4,0.6-0.4,1.2,0.2,1.7c0.1,0.1,0.3,0.2,0.4,0.4
				c1.2,0.9,2.6,1.3,4.1,1.5c-0.1,0.1-0.2,0.2-0.3,0.3c-1.1,1.1-2.3,2.3-3.4,3.4c-0.2,0.2-0.4,0.5-0.4,0.8c0,0.5,0.3,1,0.8,1.3
				c0.5,0.2,0.9,0.2,1.3-0.2c0.9-0.9,1.8-1.8,2.7-2.7c0.2-0.2,0.3-0.3,0.6,0c0.9,0.9,1.7,1.7,2.6,2.6c0.2,0.2,0.5,0.4,0.8,0.4
				c0.5,0,1-0.3,1.3-0.8c0.2-0.5,0.1-0.9-0.3-1.3c-1.1-1.2-2.3-2.3-3.5-3.5c-0.1-0.1-0.1-0.1-0.3-0.3c0.8-0.1,1.7-0.3,2.5-0.6
				C129.1,72.4,129.9,72,130.5,71.4z"/>
			<path class="st11" d="M124.8,68.4c2.8,0,5.1-2.2,5.1-5c0-2.8-2.2-5.1-5-5.1c-2.8,0-5.1,2.2-5.1,5.1
				C119.8,66.1,122,68.4,124.8,68.4z M124.8,60.8c1.4,0,2.5,1.1,2.5,2.5c0,1.4-1.1,2.5-2.5,2.5c-1.4,0-2.5-1.1-2.5-2.5
				C122.3,61.9,123.4,60.8,124.8,60.8z"/>
		</g>
	</g>
	<g>
		<path class="st3" d="M130.5,70.4c0.4-0.4,0.4-0.9,0.1-1.5c-0.3-0.5-0.8-0.7-1.3-0.5c-0.3,0.1-0.5,0.2-0.7,0.4
			c-2.2,1.5-5.3,1.5-7.5-0.1c-0.1-0.1-0.2-0.1-0.3-0.2c-0.6-0.3-1.2-0.2-1.6,0.4c-0.4,0.6-0.4,1.2,0.2,1.7c0.1,0.1,0.3,0.2,0.4,0.4
			c1.2,0.9,2.6,1.3,4.1,1.5c-0.1,0.1-0.2,0.2-0.3,0.3c-1.1,1.1-2.3,2.3-3.4,3.4c-0.2,0.2-0.4,0.5-0.4,0.8c0,0.5,0.3,1,0.8,1.3
			c0.5,0.2,0.9,0.2,1.3-0.2c0.9-0.9,1.8-1.8,2.7-2.7c0.2-0.2,0.3-0.3,0.6,0c0.9,0.9,1.7,1.7,2.6,2.6c0.2,0.2,0.5,0.4,0.8,0.4
			c0.5,0,1-0.3,1.3-0.8c0.2-0.5,0.1-0.9-0.3-1.3c-1.1-1.2-2.3-2.3-3.5-3.5c-0.1-0.1-0.1-0.1-0.3-0.3c0.8-0.1,1.7-0.3,2.5-0.6
			C129.1,71.4,129.9,71,130.5,70.4z"/>
		<path class="st3" d="M124.8,67.4c2.8,0,5.1-2.2,5.1-5c0-2.8-2.2-5.1-5-5.1c-2.8,0-5.1,2.2-5.1,5.1C119.8,65.1,122,67.4,124.8,67.4
			z M124.8,59.8c1.4,0,2.5,1.1,2.5,2.5c0,1.4-1.1,2.5-2.5,2.5c-1.4,0-2.5-1.1-2.5-2.5C122.3,60.9,123.4,59.8,124.8,59.8z"/>
	</g>
</g>
<g>
	<path class="st13" d="M163,82c0,1.7,1.3,3,3,3h26c1.7,0,3-1.3,3-3V58c0-1.7-1.3-3-3-3h-26c-1.7,0-3,1.3-3,3V82z"/>
	<path class="st14" d="M163,80c0,1.7,1.3,3,3,3h26c1.7,0,3-1.3,3-3V56c0-1.7-1.3-3-3-3h-26c-1.7,0-3,1.3-3,3V80z"/>
	<path class="st13" d="M183,68.1L183,68.1c1-0.5,2.1-1.9,2.1-4c0-2.6-2.6-4.2-4.9-4.2H172v18h7.5c4.4,0,6.7-2.8,6.7-5.4
		C186.1,69.7,184,68.6,183,68.1z M178.2,75H176v-4h2.4c2.3,0,3.3,0,3.3,2S180.7,75,178.2,75z M177.2,67H176v-4h1.4
		c2.3,0,3.3,0,3.3,2S179.7,67,177.2,67z"/>
	<path class="st3" d="M183,67.1L183,67.1c1-0.5,2.1-1.9,2.1-4c0-2.6-2.6-4.2-4.9-4.2H172v18h7.5c4.4,0,6.7-2.8,6.7-5.4
		C186.1,68.7,184,67.6,183,67.1z M178.2,74H176v-4h2.4c2.3,0,3.3,0,3.3,2S180.7,74,178.2,74z M177.2,66H176v-4h1.4
		c2.3,0,3.3,0,3.3,2S179.7,66,177.2,66z"/>
</g>
<g>
	<g>
		<path class="st3" d="M217,80c0,1.7,1.3,3,3,3h26c1.7,0,3-1.3,3-3V56c0-1.7-1.3-3-3-3h-26c-1.7,0-3,1.3-3,3V80z"/>
	</g>
	<g>
		<path class="st15" d="M245.5,84h-26c-1.9,0-3.5-1.6-3.5-3.5v-24c0-1.9,1.6-3.5,3.5-3.5h26c1.9,0,3.5,1.6,3.5,3.5v24
			C249,82.4,247.4,84,245.5,84z M219.5,54c-1.4,0-2.5,1.1-2.5,2.5v24c0,1.4,1.1,2.5,2.5,2.5h26c1.4,0,2.5-1.1,2.5-2.5v-24
			c0-1.4-1.1-2.5-2.5-2.5H219.5z"/>
	</g>
</g>
<path class="st16" d="M228.7,64.6c0,4.1,3.6,5.7,3.6,5.7L228,78h2.7l3.4-7h1v7h3V58c0,0-2.6,0-4.1,0C231.5,58,228.7,60.6,228.7,64.6
	z M235,69h-1c-0.8,0-1.5-0.5-2-1.1c-0.5-0.7-1-1.8-1-3.6c0-3.9,2.3-4.3,2.6-4.4c0,0,0,0.1,0.1,0.1h1.3V69z"/>
<g>
	<g>
		<path class="st3" d="M177,39.8c1.3-1.4,2.1-3.2,2.1-5.3c0-4.3-3.5-7.8-7.8-7.8s-7.8,3.5-7.8,7.8c0,4.3,3.5,7.8,7.8,7.8
			c1.7,0,3.4-0.6,4.7-1.5l5.8,5.8c0.1,0.1,0.3,0.2,0.5,0.2c0.2,0,0.4-0.1,0.5-0.2c0.3-0.3,0.3-0.7,0-1L177,39.8z M165,34.5
			c0-3.5,2.9-6.4,6.4-6.4c3.5,0,6.4,2.8,6.4,6.4c0,3.5-2.9,6.4-6.4,6.4C167.8,40.9,165,38.1,165,34.5z"/>
	</g>
</g>
<g>
	<g>
		<g>
			<polygon class="st3" points="2.4,112.2 9.8,112.2 9.8,132.5 18.1,132.5 18.1,112.2 25.6,112.2 25.6,106 2.4,106 			"/>
			<polygon class="st3" points="35.9,122.1 46.3,122.1 46.3,116 35.9,116 35.9,112.2 48.2,112.2 48.2,106 27.6,106 27.6,132.5 
				48.7,132.5 48.7,126.3 35.9,126.3 			"/>
			<polygon class="st3" points="75.8,106 66.5,106 62.9,112.7 59.3,106 50,106 58.1,118.7 49.1,132.5 58.4,132.5 62.5,125.1 
				66.5,132.5 75.8,132.5 67.2,118.7 			"/>
			<polygon class="st3" points="93.2,115.2 85.4,115.2 85.4,106 77.1,106 77.1,132.5 85.4,132.5 85.4,121.4 93.2,121.4 93.2,132.5 
				101.5,132.5 101.5,106 93.2,106 			"/>
			<path class="st3" d="M217.2,123.5l2.6-9.5l2.7,9.5H217.2z M215.7,106l-8.3,24.3l-8.8-14.3l9.2-10h-9.7l-7.3,8.6V106h-8.3v26.6
				h8.3v-8.4l2-2.2l6.1,10.6h7.8h2.1h6l0.9-3.5h8.2l1,3.5h8.2l-9-26.6H215.7z"/>
			<path class="st3" d="M168.3,126.7c-4.2,0-5-3.5-5-7.2c0-5.1,1.7-7.7,4.7-7.7c2.6,0,4.2,1.6,4.5,4.4h7.9
				c-0.7-6.8-5-10.8-12.7-10.8c-7,0-12.6,5.3-12.6,13.9c0,8.6,5,14,13.4,14c6.7,0,11.3-4.1,12.1-11h-8
				C172.2,124.8,170.9,126.7,168.3,126.7"/>
			<path class="st3" d="M246.2,118.1h-3.4v-5.9h2.3c1.8,0,4.4,0.3,4.4,2.8C249.5,117.2,248.1,118.1,246.2,118.1 M246.7,106h-12.2
				v26.6h8.3v-8.3h4.2c7.3,0,10.5-3.6,10.5-9.3C257.4,109.5,253.9,106,246.7,106"/>
			<path class="st3" d="M271.1,126.3h-3.1v-4.9h2.1c2.6,0,4.6,0.1,4.6,2.5C274.7,125.9,273.2,126.3,271.1,126.3 M272.1,115.7h-4
				v-3.9h12V106h-20.3v26.6H272c6.4,0,10.4-2.7,10.4-8.6C282.4,118.4,278.6,115.7,272.1,115.7"/>
			<linearGradient id="SVGID_6_" gradientUnits="userSpaceOnUse" x1="128.7574" y1="130.3349" x2="128.7574" y2="97.9584">
				<stop  offset="0" style="stop-color:#F05826"/>
				<stop  offset="1" style="stop-color:#F48220"/>
			</linearGradient>
			<path class="st17" d="M132.8,106.1v23v0v0c0,0.3-0.2,0.5-0.4,0.6c-1.1,0.4-2.4,0.6-3.6,0.6c-1.3,0-2.5-0.2-3.6-0.6l0,0l0,0
				c-0.2-0.1-0.4-0.3-0.4-0.6v-23c-0.8,0.2-1.6,0.5-2.4,0.9v0c-0.1,0-0.2,0.1-0.3,0.1c-0.3,0-0.6-0.3-0.6-0.6v0v-6.8v0
				c0-0.3,0.2-0.5,0.4-0.6c2.2-0.7,4.5-1.1,6.9-1.1c2.4,0,4.7,0.4,6.9,1.1c0.2,0.1,0.4,0.3,0.4,0.6v6.8v0c0,0.4-0.3,0.6-0.6,0.6
				c-0.1,0-0.2,0-0.3-0.1v0C134.4,106.7,133.6,106.3,132.8,106.1"/>
			<linearGradient id="SVGID_7_" gradientUnits="userSpaceOnUse" x1="128.7529" y1="141.6191" x2="128.7529" y2="101.5773">
				<stop  offset="0" style="stop-color:#F05826"/>
				<stop  offset="1" style="stop-color:#F48220"/>
			</linearGradient>
			<path class="st18" d="M140.9,101.7L140.9,101.7L140.9,101.7c5.8,3.9,9.7,10.6,9.7,18.1c0,12-9.8,21.8-21.8,21.8
				c-12.1,0-21.8-9.8-21.8-21.8c0-7.5,3.8-14.2,9.6-18.1v0c0.1-0.1,0.2-0.1,0.3-0.1c0.3,0,0.6,0.3,0.6,0.6v8.7v0
				c0,0.1,0,0.2-0.1,0.3l0,0c-1.8,2.4-2.9,5.4-2.9,8.6c0,7.8,6.4,14.2,14.2,14.2c7.9,0,14.2-6.4,14.2-14.2c0-3.2-1.1-6.2-2.9-8.6v0
				c-0.1-0.1-0.1-0.2-0.1-0.4v-8.7c0-0.3,0.3-0.6,0.6-0.6C140.7,101.6,140.8,101.6,140.9,101.7"/>
			<path class="st19" d="M110.2,97.3h37.2c3.4,0,6.2,2.8,6.2,6.2v37.2c0,3.4-2.8,6.2-6.2,6.2h-37.2c-3.4,0-6.2-2.8-6.2-6.2v-37.2
				C104,100.1,106.7,97.3,110.2,97.3"/>
			<linearGradient id="SVGID_8_" gradientUnits="userSpaceOnUse" x1="128.7506" y1="144.5803" x2="128.7506" y2="94.9972">
				<stop  offset="0" style="stop-color:#F05826"/>
				<stop  offset="1" style="stop-color:#F48220"/>
			</linearGradient>
			<path class="st20" d="M110.2,95h37.2c3.4,0,6.2,2.8,6.2,6.2v37.2c0,3.4-2.8,6.2-6.2,6.2h-37.2c-3.4,0-6.2-2.8-6.2-6.2v-37.2
				C104,97.8,106.7,95,110.2,95"/>
			<path class="st3" d="M125.1,129.7L125.1,129.7L125.1,129.7c1.1,0.4,2.3,0.6,3.6,0.6c1.3,0,2.5-0.2,3.6-0.6
				c0.2-0.1,0.4-0.3,0.4-0.6v0v0v-23c0.8,0.2,1.6,0.5,2.3,0.9v0c0.1,0,0.2,0.1,0.3,0.1c0.4,0,0.6-0.3,0.6-0.6v0v-6.8
				c0-0.3-0.2-0.5-0.4-0.6c-2.2-0.7-4.5-1.1-6.9-1.1c-2.4,0-4.7,0.4-6.9,1.1c-0.2,0.1-0.4,0.3-0.4,0.6v0v6.8v0
				c0,0.4,0.3,0.6,0.6,0.6c0.1,0,0.2,0,0.3-0.1v0c0.7-0.4,1.5-0.7,2.4-0.9v23C124.7,129.4,124.9,129.7,125.1,129.7"/>
			<path class="st3" d="M128.7,141.6c12.1,0,21.8-9.8,21.8-21.8c0-7.5-3.8-14.2-9.6-18.1v0l0,0c-0.1-0.1-0.2-0.1-0.3-0.1
				c-0.3,0-0.6,0.3-0.6,0.6v8.7c0,0.1,0,0.3,0.1,0.4v0c1.8,2.4,2.9,5.4,2.9,8.6c0,7.8-6.4,14.2-14.2,14.2c-7.8,0-14.2-6.4-14.2-14.2
				c0-3.2,1.1-6.2,2.9-8.6l0,0c0.1-0.1,0.1-0.2,0.1-0.3v0v-8.7c0-0.3-0.3-0.6-0.6-0.6c-0.1,0-0.2,0-0.3,0.1v0
				c-5.8,3.9-9.6,10.6-9.6,18.1C106.9,131.8,116.7,141.6,128.7,141.6"/>
		</g>
		<rect x="5.4" y="141.1" class="st21" width="93.8" height="1"/>
		<rect x="159.1" y="141.1" class="st21" width="121.5" height="1"/>
	</g>
	<g>
		<path class="st21" d="M7.2,152.5h1.3l1.1,2.9c0.1,0.4,0.4,1.1,0.5,1.6h0c0.1-0.4,0.5-1.4,0.7-2l0.9-2.5h1.3l0.4,5.8h-1l-0.1-2.8
			c0-0.6-0.1-1.4-0.1-2.1h0c-0.2,0.5-0.3,1-0.6,1.9l-1.1,2.9H9.7l-1-2.9c-0.2-0.6-0.4-1.4-0.6-1.9h0c0,0.7-0.1,1.5-0.1,2.1l-0.1,2.7
			h-1L7.2,152.5z"/>
		<path class="st21" d="M22.1,158.3l-0.1-0.7h0c-0.3,0.5-0.9,0.9-1.8,0.9c-1.2,0-1.8-0.8-1.8-1.7c0-1.4,1.2-2.2,3.5-2.2v-0.1
			c0-0.5-0.1-1.3-1.3-1.3c-0.5,0-1.1,0.2-1.5,0.4l-0.2-0.7c0.5-0.3,1.2-0.5,1.9-0.5c1.8,0,2.2,1.2,2.2,2.4v2.2c0,0.5,0,1,0.1,1.4
			H22.1z M21.9,155.4c-1.2,0-2.5,0.2-2.5,1.3c0,0.7,0.5,1,1,1c0.8,0,1.2-0.5,1.4-1c0-0.1,0.1-0.2,0.1-0.3V155.4z"/>
		<path class="st21" d="M32.2,152.5v0.9h-2.5v5h-1v-5.8H32.2z"/>
		<path class="st21" d="M40.4,158.3l-0.1-0.7h0c-0.3,0.5-0.9,0.9-1.8,0.9c-1.2,0-1.8-0.8-1.8-1.7c0-1.4,1.2-2.2,3.5-2.2v-0.1
			c0-0.5-0.1-1.3-1.3-1.3c-0.5,0-1.1,0.2-1.5,0.4l-0.2-0.7c0.5-0.3,1.2-0.5,1.9-0.5c1.8,0,2.2,1.2,2.2,2.4v2.2c0,0.5,0,1,0.1,1.4
			H40.4z M40.2,155.4c-1.2,0-2.5,0.2-2.5,1.3c0,0.7,0.5,1,1,1c0.8,0,1.2-0.5,1.4-1c0-0.1,0.1-0.2,0.1-0.3V155.4z"/>
		<path class="st21" d="M47.5,155H48c0.9,0,1.5-0.4,1.5-0.9c0-0.5-0.5-0.8-1.1-0.8c-0.5,0-1,0.2-1.4,0.4l-0.3-0.6
			c0.6-0.4,1.3-0.5,1.9-0.5c0.9,0,2,0.4,2,1.5c0,0.7-0.7,1.2-1.3,1.3v0c0.9,0.1,1.6,0.6,1.6,1.5c0,1.3-1.3,1.7-2.5,1.7
			c-0.7,0-1.4-0.2-1.9-0.5l0.3-0.7c0.4,0.2,1,0.4,1.5,0.4c0.9,0,1.4-0.4,1.4-1c0-0.8-0.8-1-1.7-1h-0.5V155z"/>
		<path class="st21" d="M57.2,152.5v2.4c0,0.9,0,1.5-0.1,2.3l0,0c0.3-0.7,0.6-1.1,0.9-1.8l1.8-3h1.2v5.8h-1v-2.5
			c0-0.9,0-1.4,0.1-2.4h0c-0.4,0.7-0.6,1.2-1,1.8c-0.6,0.9-1.2,2-1.8,3h-1.2v-5.8H57.2z"/>
		<path class="st21" d="M67.9,152.5v2.3h2.8v-2.3h1v5.8h-1v-2.6h-2.8v2.6h-1v-5.8H67.9z"/>
		<path class="st21" d="M85.1,152.5v2.5h0.3l2.2-2.5h1.3l-2.5,2.6c0.9,0.1,1.5,0.7,2,1.8c0.2,0.4,0.4,0.9,0.6,1.4h-1.1
			c-0.2-0.3-0.4-0.7-0.5-1.2c-0.4-0.9-0.9-1.4-1.9-1.4h-0.2v2.6h-1v-5.8H85.1z"/>
		<path class="st21" d="M99,155.4c0,2.1-1.5,3.1-2.9,3.1c-1.6,0-2.8-1.2-2.8-3c0-1.9,1.3-3.1,2.9-3.1C97.9,152.4,99,153.6,99,155.4z
			 M94.4,155.4c0,1.3,0.7,2.2,1.8,2.2c1,0,1.8-0.9,1.8-2.3c0-1-0.5-2.2-1.7-2.2C94.9,153.2,94.4,154.3,94.4,155.4z"/>
		<path class="st21" d="M104.4,152.5h1.3l1.1,2.9c0.1,0.4,0.4,1.1,0.5,1.6h0c0.1-0.4,0.5-1.4,0.7-2l0.9-2.5h1.3l0.4,5.8h-1l-0.1-2.8
			c0-0.6-0.1-1.4-0.1-2.1h0c-0.2,0.5-0.3,1-0.6,1.9l-1.1,2.9h-0.8l-1-2.9c-0.2-0.6-0.4-1.4-0.6-1.9h0c0,0.7-0.1,1.5-0.1,2.1
			l-0.1,2.7h-1L104.4,152.5z"/>
		<path class="st21" d="M117,152.5v2.4c0,0.9,0,1.5-0.1,2.3l0,0c0.3-0.7,0.6-1.1,0.9-1.8l1.8-3h1.2v5.8h-1v-2.5c0-0.9,0-1.4,0.1-2.4
			h0c-0.4,0.7-0.6,1.2-1,1.8c-0.6,0.9-1.2,2-1.8,3H116v-5.8H117z"/>
		<path class="st21" d="M130.9,158.1c-0.3,0.1-0.9,0.3-1.7,0.3c-1.8,0-2.9-1.2-2.9-3c0-1.8,1.2-3.1,3.1-3.1c0.6,0,1.2,0.2,1.5,0.3
			l-0.2,0.8c-0.3-0.1-0.6-0.3-1.2-0.3c-1.3,0-2.1,1-2.1,2.2c0,1.3,0.9,2.2,2,2.2c0.6,0,1-0.2,1.3-0.3L130.9,158.1z"/>
		<path class="st21" d="M140.2,158.1c-0.3,0.1-0.9,0.3-1.7,0.3c-1.8,0-2.9-1.2-2.9-3c0-1.8,1.2-3.1,3.1-3.1c0.6,0,1.2,0.2,1.5,0.3
			l-0.2,0.8c-0.3-0.1-0.6-0.3-1.2-0.3c-1.3,0-2.1,1-2.1,2.2c0,1.3,0.9,2.2,2,2.2c0.6,0,1-0.2,1.3-0.3L140.2,158.1z"/>
		<path class="st21" d="M146.5,152.5v2.4c0,0.9,0,1.5-0.1,2.3l0,0c0.3-0.7,0.6-1.1,0.9-1.8l1.8-3h1.2v5.8h-1v-2.5
			c0-0.9,0-1.4,0.1-2.4h0c-0.4,0.7-0.6,1.2-1,1.8c-0.6,0.9-1.2,2-1.8,3h-1.2v-5.8H146.5z"/>
		<path class="st21" d="M161.4,155.4c0,2.1-1.5,3.1-2.9,3.1c-1.6,0-2.8-1.2-2.8-3c0-1.9,1.3-3.1,2.9-3.1
			C160.3,152.4,161.4,153.6,161.4,155.4z M156.8,155.4c0,1.3,0.7,2.2,1.8,2.2c1,0,1.8-0.9,1.8-2.3c0-1-0.5-2.2-1.7-2.2
			C157.4,153.2,156.8,154.3,156.8,155.4z"/>
		<path class="st21" d="M167.8,152.5v2.3h2.8v-2.3h1v5.8h-1v-2.6h-2.8v2.6h-1v-5.8H167.8z"/>
		<path class="st21" d="M178.4,152.5v2.3h2.8v-2.3h1v5.8h-1v-2.6h-2.8v2.6h-1v-5.8H178.4z"/>
		<path class="st21" d="M193.2,155.4c0,2.1-1.5,3.1-2.9,3.1c-1.6,0-2.8-1.2-2.8-3c0-1.9,1.3-3.1,2.9-3.1
			C192.1,152.4,193.2,153.6,193.2,155.4z M188.6,155.4c0,1.3,0.7,2.2,1.8,2.2c1,0,1.8-0.9,1.8-2.3c0-1-0.5-2.2-1.7-2.2
			C189.1,153.2,188.6,154.3,188.6,155.4z"/>
		<path class="st21" d="M199.5,152.5v2.4c0,0.9,0,1.5-0.1,2.3l0,0c0.3-0.7,0.6-1.1,0.9-1.8l1.8-3h1.2v5.8h-1v-2.5
			c0-0.9,0-1.4,0.1-2.4h0c-0.4,0.7-0.6,1.2-1,1.8c-0.6,0.9-1.2,2-1.8,3h-1.2v-5.8H199.5z M200.2,150.2c0,0.5,0.3,0.9,0.8,0.9
			c0.5,0,0.8-0.4,0.8-0.9h0.8c0,1-0.7,1.5-1.6,1.5c-1.1,0-1.5-0.7-1.5-1.5H200.2z"/>
		<path class="st21" d="M219.8,152.5v0.8h-1.8v5h-1v-5h-1.8v-0.8H219.8z"/>
		<path class="st21" d="M225.1,155.6c0,1.4,0.9,2,2,2c0.8,0,1.2-0.1,1.6-0.3l0.2,0.8c-0.4,0.2-1,0.4-1.9,0.4c-1.8,0-2.9-1.2-2.9-2.9
			s1-3.1,2.7-3.1c1.9,0,2.4,1.7,2.4,2.7c0,0.2,0,0.4,0,0.5H225.1z M228.2,154.9c0-0.7-0.3-1.7-1.5-1.7c-1.1,0-1.5,1-1.6,1.7H228.2z"
			/>
		<path class="st21" d="M235,152.5l0.8,1.2c0.2,0.3,0.4,0.6,0.6,0.9h0c0.2-0.3,0.4-0.6,0.6-1l0.8-1.2h1.1l-2,2.8l2,3h-1.2L237,157
			c-0.2-0.3-0.4-0.7-0.6-1h0c-0.2,0.3-0.4,0.7-0.6,1l-0.8,1.3h-1.2l2.1-3l-2-2.8H235z"/>
		<path class="st21" d="M245.2,152.5v2.3h2.8v-2.3h1v5.8h-1v-2.6h-2.8v2.6h-1v-5.8H245.2z"/>
		<path class="st21" d="M255.7,152.5v2.4c0,0.9,0,1.5-0.1,2.3l0,0c0.3-0.7,0.6-1.1,0.9-1.8l1.8-3h1.2v5.8h-1v-2.5
			c0-0.9,0-1.4,0.1-2.4h0c-0.4,0.7-0.6,1.2-1,1.8c-0.6,0.9-1.2,2-1.8,3h-1.2v-5.8H255.7z"/>
		<path class="st21" d="M266.4,152.5v2.5h0.3l2.2-2.5h1.3l-2.5,2.6c0.9,0.1,1.5,0.7,2,1.8c0.2,0.4,0.4,0.9,0.6,1.4h-1.1
			c-0.2-0.3-0.4-0.7-0.5-1.2c-0.4-0.9-0.9-1.4-1.9-1.4h-0.2v2.6h-1v-5.8H266.4z"/>
		<path class="st21" d="M276.2,152.5v2.4c0,0.9,0,1.5-0.1,2.3l0,0c0.3-0.7,0.6-1.1,0.9-1.8l1.8-3h1.2v5.8h-1v-2.5
			c0-0.9,0-1.4,0.1-2.4h0c-0.4,0.7-0.6,1.2-1,1.8c-0.6,0.9-1.2,2-1.8,3h-1.2v-5.8H276.2z"/>
	</g>
</g>
<path class="st3" d="M277,1h-5v1h5c2.5,0,5,1.7,5,4s-2.5,4-5,4h-3V7l-3,3l3,4v-3h3c3,0,6-2.2,6-5S280,1,277,1z"/>
<path class="st22" d="M213.6,44.9l-3.8-3.8c-0.1-0.1-0.2-0.1-0.3,0l-0.4,0.4c0,0-0.1,0.1-0.1,0.1s0,0.1,0.1,0.1l3.3,3.3l-3.3,3.3
	c0,0-0.1,0.1-0.1,0.1s0,0.1,0.1,0.1l0.4,0.4c0,0,0.1,0.1,0.1,0.1s0.1,0,0.1-0.1l3.8-3.8C213.7,45.1,213.7,44.9,213.6,44.9z"/>
<path class="st22" d="M201.7,45.1l3.8,3.8c0,0,0.1,0.1,0.1,0.1c0,0,0.1,0,0.1-0.1l0.4-0.4c0,0,0.1-0.1,0.1-0.1s0-0.1-0.1-0.1
	l-3.3-3.3l3.3-3.3c0,0,0.1-0.1,0.1-0.1s0-0.1-0.1-0.1l-0.4-0.4c-0.1-0.1-0.2-0.1-0.3,0l-3.8,3.8C201.6,44.9,201.6,45.1,201.7,45.1z"
	/>
<path class="st3" d="M228.6,44.9l-3.8-3.8c-0.1-0.1-0.2-0.1-0.3,0l-0.4,0.4c0,0-0.1,0.1-0.1,0.1s0,0.1,0.1,0.1l3.3,3.3l-3.3,3.3
	c0,0-0.1,0.1-0.1,0.1s0,0.1,0.1,0.1l0.4,0.4c0,0,0.1,0.1,0.1,0.1s0.1,0,0.1-0.1l3.8-3.8C228.7,45.1,228.7,44.9,228.6,44.9z"/>
<path class="st3" d="M216.7,45.1l3.8,3.8c0,0,0.1,0.1,0.1,0.1c0,0,0.1,0,0.1-0.1l0.4-0.4c0,0,0.1-0.1,0.1-0.1s0-0.1-0.1-0.1
	l-3.3-3.3l3.3-3.3c0,0,0.1-0.1,0.1-0.1s0-0.1-0.1-0.1l-0.4-0.4c-0.1-0.1-0.2-0.1-0.3,0l-3.8,3.8C216.6,44.9,216.6,45.1,216.7,45.1z"
	/>
<path class="st0" d="M243.6,44.9l-3.8-3.8c-0.1-0.1-0.2-0.1-0.3,0l-0.4,0.4c0,0-0.1,0.1-0.1,0.1s0,0.1,0.1,0.1l3.3,3.3l-3.3,3.3
	c0,0-0.1,0.1-0.1,0.1s0,0.1,0.1,0.1l0.4,0.4c0,0,0.1,0.1,0.1,0.1c0,0,0.1,0,0.1-0.1l3.8-3.8C243.7,45.1,243.7,44.9,243.6,44.9z"/>
<path class="st0" d="M231.7,45.1l3.8,3.8c0,0,0.1,0.1,0.1,0.1c0,0,0.1,0,0.1-0.1l0.4-0.4c0,0,0.1-0.1,0.1-0.1s0-0.1-0.1-0.1
	l-3.3-3.3l3.3-3.3c0,0,0.1-0.1,0.1-0.1s0-0.1-0.1-0.1l-0.4-0.4c-0.1-0.1-0.2-0.1-0.3,0l-3.8,3.8C231.6,44.9,231.6,45.1,231.7,45.1z"
	/>
<path class="st23" d="M258.6,44.9l-3.8-3.8c-0.1-0.1-0.2-0.1-0.3,0l-0.4,0.4c0,0-0.1,0.1-0.1,0.1s0,0.1,0.1,0.1l3.3,3.3l-3.3,3.3
	c0,0-0.1,0.1-0.1,0.1s0,0.1,0.1,0.1l0.4,0.4c0,0,0.1,0.1,0.1,0.1c0,0,0.1,0,0.1-0.1l3.8-3.8C258.7,45.1,258.7,44.9,258.6,44.9z"/>
<path class="st23" d="M246.7,45.1l3.8,3.8c0,0,0.1,0.1,0.1,0.1c0,0,0.1,0,0.1-0.1l0.4-0.4c0,0,0.1-0.1,0.1-0.1s0-0.1-0.1-0.1
	l-3.3-3.3l3.3-3.3c0,0,0.1-0.1,0.1-0.1s0-0.1-0.1-0.1l-0.4-0.4c-0.1-0.1-0.2-0.1-0.3,0l-3.8,3.8C246.6,44.9,246.6,45.1,246.7,45.1z"
	/>
<path class="st22" d="M194.8,44.1l3.8-3.8c0,0,0.1-0.1,0.1-0.1s0-0.1-0.1-0.1l-0.4-0.4c0,0-0.1-0.1-0.1-0.1s-0.1,0-0.1,0.1l-3.3,3.3
	l-3.3-3.3c0,0-0.1-0.1-0.1-0.1c-0.1,0-0.1,0-0.1,0.1l-0.4,0.4c-0.1,0.1-0.1,0.2,0,0.3l3.8,3.8C194.6,44.2,194.7,44.2,194.8,44.1z"/>
<path class="st3" d="M194.8,49.8l3.8-3.8c0,0,0.1-0.1,0.1-0.1s0-0.1-0.1-0.1l-0.4-0.4c0,0-0.1-0.1-0.1-0.1s-0.1,0-0.1,0.1l-3.3,3.3
	l-3.3-3.3c0,0-0.1-0.1-0.1-0.1c-0.1,0-0.1,0-0.1,0.1l-0.4,0.4c-0.1,0.1-0.1,0.2,0,0.3l3.8,3.8C194.6,49.8,194.7,49.8,194.8,49.8z"/>
<g>
	<g id="_x37_8._Messages">
		<g>
			
				<linearGradient id="SVGID_9_" gradientUnits="userSpaceOnUse" x1="47.6497" y1="-124.8879" x2="47.6497" y2="-86.8882" gradientTransform="matrix(1 0 0 -1 0 74.5288)">
				<stop  offset="0" style="stop-color:#F15A24"/>
				<stop  offset="1" style="stop-color:#F7931E"/>
			</linearGradient>
			<path class="st24" d="M47.3,174.4c-1.7,0-3,1.3-3,3s1.4,3,3,3c1.7,0,3-1.3,3-3S49,174.4,47.3,174.4z M47.3,161.4
				c-11.2,0-19.7,7.2-19.7,16c0,5.9,3.7,11.1,10.7,13.9v6.2c0,2.2,0.5,2.6,1.9,0.9l3.9-5.1c1.1,0.1,2.1,0.2,3.2,0.2
				c11.2,0,20.2-7.2,20.2-16C67.6,168.6,58.5,161.4,47.3,161.4z M47.3,189.5c-8.9,0-16.2-5.4-16.2-12c0-6.6,7.2-12,16.2-12
				c8.9,0,16.2,5.4,16.2,12C63.5,184.1,56.3,189.5,47.3,189.5z M55.4,174.4c-1.7,0-3,1.3-3,3s1.4,3,3,3c1.7,0,3-1.3,3-3
				S57.1,174.4,55.4,174.4z M39.2,174.4c-1.7,0-3,1.3-3,3s1.4,3,3,3c1.7,0,3-1.3,3-3C42.3,175.8,40.9,174.4,39.2,174.4z"/>
		</g>
	</g>
</g>
<g id="Micro__x2F__Recording">
	<path class="st25" d="M12.1,180.7c3.4,0,6-2.7,6-6v-7.3c0-3.3-2.6-6-6-6s-6,2.7-6,6v7.3C6.1,178,8.7,180.7,12.1,180.7z M23.1,171.7
		c0-0.8-0.7-1.1-1.5-1.1s-1.5,0.4-1.5,1.1c0,0.1,0,4,0,4c0,4-3.5,6.8-7.9,6.8s-8.1-2.7-8.1-6.8v-4c0-0.1-0.8-1.1-1.6-1.1
		s-1.4,1.1-1.4,1.1v4c0,5.2,3.9,8.8,9.9,9.5v3.7H5v3h14v-3h-6v-3.7c6-0.7,10.1-4.4,10.1-9.5C23.1,175.7,23.1,171.8,23.1,171.7z"/>
</g>
<g>
	<path class="st26" d="M272,62c0,2.2,1.8,4,4,4h18c2.2,0,4-1.8,4-4v-4c0-2.2-1.8-4-4-4h-18c-2.2,0-4,1.8-4,4V62z"/>
	<g>
		<path class="st3" d="M277.1,56.5l2.6,4.5h0v-4.5h1.3V63h-1.4l-2.7-4.7h0V63h-1.3v-6.5H277.1z"/>
		<path class="st3" d="M286.6,61.6c-0.3,1.2-1.3,1.5-2.1,1.5c-1.4,0-2.4-0.7-2.4-2.6c0-0.6,0.2-2.4,2.3-2.4c1.4,0,2.3,0.7,2.3,2.4
			v0.5h-3.3c0,0.4,0.1,1.2,1.1,1.2c0.4,0,0.7-0.2,0.8-0.5L286.6,61.6L286.6,61.6z M285.3,60.1c-0.1-0.8-0.6-1-1-1
			c-0.6,0-0.9,0.4-1,1H285.3z"/>
		<path class="st3" d="M288.4,58.2l0.8,3.5h0l0.7-3.5h1.3l0.7,3.5h0l0.8-3.5h1.3l-1.4,4.8h-1.3l-0.8-3.5h0l-0.8,3.5h-1.3l-1.4-4.8
			H288.4z"/>
	</g>
</g>
<g>
	<path class="st27" d="M272,77c0,2.2,1.8,4,4,4h18c2.2,0,4-1.8,4-4v-4c0-2.2-1.8-4-4-4h-18c-2.2,0-4,1.8-4,4V77z"/>
	<g>
		<path class="st3" d="M276.7,76c0,0.4,0.2,1.1,1.4,1.1c0.6,0,1.4-0.2,1.4-0.8c0-0.5-0.5-0.6-1.2-0.8l-1.3-0.3
			c-0.9-0.2-1.5-0.8-1.5-1.8c0-0.7,0.4-2,2.5-2c2,0,2.5,1.3,2.5,2.1h-1.3c0-0.3-0.1-1-1.3-1c-0.5,0-1.1,0.2-1.1,0.8
			c0,0.5,0.4,0.6,0.7,0.7l1.6,0.4c0.9,0.2,1.7,0.6,1.7,1.8c0,2-2,2.1-2.6,2.1c-2.4,0-2.8-1.4-2.8-2.2H276.7z"/>
		<path class="st3" d="M281.7,74.7c0.1-1.5,1.2-1.7,2.2-1.7c0.7,0,1.9,0.2,1.9,1.4v2.6c0,0.6,0.1,0.7,0.3,0.7V78h-1.4
			c-0.1-0.2-0.1-0.3-0.1-0.6c-0.3,0.3-0.7,0.7-1.6,0.7c-0.7,0-1.5-0.4-1.5-1.4c0-1.1,1-1.6,2.3-1.7c0.5,0,0.7-0.2,0.7-0.4
			c0-0.5-0.5-0.6-0.8-0.6c-0.6,0-0.7,0.4-0.8,0.7L281.7,74.7L281.7,74.7z M283.6,75.9c-0.5,0.1-0.9,0.2-0.9,0.7
			c0,0.4,0.3,0.6,0.6,0.6c0.6,0,1.1-0.4,1.1-1v-0.6C284.4,75.7,284.2,75.8,283.6,75.9z"/>
		<path class="st3" d="M288.2,78H287v-6.5h1.3V78z"/>
		<path class="st3" d="M293.8,76.6c-0.3,1.2-1.3,1.5-2.1,1.5c-1.4,0-2.4-0.7-2.4-2.6c0-0.6,0.2-2.4,2.3-2.4c1.4,0,2.3,0.7,2.3,2.4
			v0.5h-3.3c0,0.4,0.1,1.2,1.1,1.2c0.4,0,0.7-0.2,0.8-0.5L293.8,76.6L293.8,76.6z M292.5,75.1c-0.1-0.8-0.6-1-1-1
			c-0.6,0-0.9,0.4-1,1H292.5z"/>
	</g>
</g>
<g>
	<g>
		<g>
			
				<linearGradient id="SVGID_10_" gradientUnits="userSpaceOnUse" x1="82.3333" y1="-105.6256" x2="82.3333" y2="-88.6256" gradientTransform="matrix(1 0 0 -1 0 72.6387)">
				<stop  offset="0" style="stop-color:#088D0B"/>
				<stop  offset="1" style="stop-color:#24CD1B"/>
			</linearGradient>
			<rect x="73.8" y="161.3" class="st28" width="17" height="17"/>
		</g>
		<defs>
			<filter id="Adobe_OpacityMaskFilter" filterUnits="userSpaceOnUse" x="73.8" y="161.3" width="17" height="17">
				<feColorMatrix  type="matrix" values="1 0 0 0 0  0 1 0 0 0  0 0 1 0 0  0 0 0 1 0"/>
			</filter>
		</defs>
		<mask maskUnits="userSpaceOnUse" x="73.8" y="161.3" width="17" height="17" id="SVGID_1_">
			<g class="st29">
			</g>
		</mask>
		<g class="st30">
			<rect x="73.8" y="161.3" width="17" height="17"/>
		</g>
	</g>
	<g>
		<path class="st3" d="M88,166.1l-6.9,7.5c-0.1,0.1-0.2,0.1-0.2,0l-3.9-4.3c-0.1-0.1-0.1-0.2,0-0.2l1-1c0.1-0.1,0.2-0.1,0.2,0
			l2.9,3.1l5.9-6.4c0.1-0.1,0.2-0.1,0.2,0l1,1C88,165.9,88,166,88,166.1z"/>
	</g>
</g>
<polygon class="st0" points="114.1,174 114.1,171 114.1,170 113.1,170 106.1,170 106.1,167 109.1,167 109.1,161 102.1,161 
	102.1,167 105.1,167 105.1,170 98.1,170 97.1,170 97.1,171 97.1,174 95.1,174 95.1,178 100.1,178 100.1,174 98.1,174 98.1,171 
	105.1,171 105.1,174 103.1,174 103.1,178 108.1,178 108.1,174 106.1,174 106.1,171 113.1,171 113.1,174 111.1,174 111.1,178 
	116.1,178 116.1,174 "/>
<polygon class="st3" points="114.1,194 114.1,191 114.1,190 113.1,190 106.1,190 106.1,187 109.1,187 109.1,181 102.1,181 
	102.1,187 105.1,187 105.1,190 98.1,190 97.1,190 97.1,191 97.1,194 95.1,194 95.1,198 100.1,198 100.1,194 98.1,194 98.1,191 
	105.1,191 105.1,194 103.1,194 103.1,198 108.1,198 108.1,194 106.1,194 106.1,191 113.1,191 113.1,194 111.1,194 111.1,198 
	116.1,198 116.1,194 "/>
<path class="st5" d="M283.4,36.5c-0.1,0.2-0.3,0.3-0.5,0.3s-0.4-0.3-0.3-0.5l1.5-5.8c0,0,0,0,0,0c0.2-0.6-0.1-1.3-0.7-1.4
	c-0.7-0.2-1.3,0.3-1.4,0.9l0.1,0l-0.1,0l-2.8,9.9l-1-2.8c-0.3-0.8-1-1.3-1.8-1c-0.8,0.3-1.1,1.2-0.8,2c0,0,1.6,4.5,2.3,6.4
	c0.7,1.9,2,3.6,5.4,4.5c5.6,1.4,7-2.7,7.4-4c0.3-1.3,2.8-10.8,2.8-10.8l0,0c0,0-0.1,0.3-0.1,0.3c0.2-0.6,0.1-1.2-0.6-1.4
	c-0.7-0.2-1,0.3-1.2,1c0,0,0.1-0.3,0.1-0.3l0,0l-1.4,5.4c-0.1,0.2-0.3,0.3-0.5,0.3s-0.4-0.3-0.3-0.5l1.8-7.3c0,0,0-0.1,0-0.1
	c0.2-0.6-0.3-1.3-1-1.5c-0.7-0.2-1.5,0.9-1.5,0.9l0,0l-1.7,6.7c-0.1,0.2-0.3,0.3-0.5,0.3c-0.2-0.1-0.4-0.3-0.3-0.5l2-7.5l0,0
	c0,0-0.2-1.3-0.9-1.4c-0.7-0.2-1.5,0.2-1.6,0.9"/>
<g>
	<g>
		
			<linearGradient id="SVGID_11_" gradientUnits="userSpaceOnUse" x1="196.831" y1="-77.3872" x2="204.3778" y2="-66.8395" gradientTransform="matrix(0.9865 0.1636 0.1636 -0.9865 -55.9825 68.1099)">
			<stop  offset="0" style="stop-color:#F15A24"/>
			<stop  offset="1" style="stop-color:#F7931E"/>
		</linearGradient>
		<path class="st31" d="M124.3,163.1L124.3,163.1c-0.1,0.1-0.1,0.2-0.1,0.3l3.1,15c0,0.1,0.1,0.2,0.2,0.2c0.1,0,0.2,0,0.3-0.1
			l2.4-3.8l4.5,6.2c0.1,0.2,0.4,0.2,0.6,0.1c0.7-0.5,1.8-1.3,2.5-1.7c0.2-0.1,0.2-0.4,0.1-0.6l-4.5-6.2l4.5-1c0.1,0,0.2-0.1,0.2-0.2
			l0,0c0-0.1,0-0.2-0.1-0.3l-13.4-7.8C124.5,163,124.4,163,124.3,163.1z"/>
	</g>
	<g>
		<path class="st32" d="M141.6,171.1h-1.5c0-0.2,0,0.1,0,0c0-0.5,0.1-0.9,0.2-1.2c0.2-0.3,0.5-0.7,1-1.1c0.5-0.4,0.8-0.6,0.9-0.8
			c0.1-0.2,0.2-0.4,0.2-0.6c0-0.3-0.1-0.6-0.4-0.8c-0.3-0.2-0.6-0.3-1-0.3c-0.4,0-0.8,0.1-1,0.4c-0.3,0.2-0.5,0.6-0.6,1.1l-1.5-0.2
			c0-0.7,0.3-1.3,0.9-1.8c0.6-0.5,1.3-0.7,2.2-0.7c0.9,0,1.7,0.2,2.3,0.7c0.6,0.5,0.8,1.1,0.8,1.7c0,0.4-0.1,0.7-0.3,1
			c-0.2,0.3-0.6,0.8-1.3,1.3c-0.3,0.3-0.6,0.5-0.6,0.7S141.6,170.6,141.6,171.1z M140.1,173.6v-1.5h1.5v1.5H140.1z"/>
	</g>
</g>
<path class="st33" d="M81.8,182.1c-3.9,0-7,3.1-7,7s3.1,7,7,7s7-3.1,7-7S85.6,182.1,81.8,182.1z M82.5,193H81v-1.5h1.5V193z
	 M84.5,188.2c-0.2,0.3-0.6,0.7-1.3,1.2c-0.3,0.3-0.5,0.6-0.6,0.7s-0.1,0-0.1,1H81c0,0,0-0.4,0-0.5c0-0.4,0.1-0.9,0.2-1.2
	s0.5-0.6,0.9-1c0.5-0.4,0.7-0.6,0.8-0.7c0.1-0.2,0.2-0.4,0.2-0.6c0-0.3-0.1-0.6-0.4-0.8c-0.2-0.2-0.6-0.3-1-0.3
	c-0.4,0-0.7,0.1-1,0.3s-0.5,0.6-0.6,1l-1.5-0.2c0-0.6,0.3-1.2,0.9-1.6s1.2-0.7,2.1-0.7c0.9,0,1.7,0.2,2.2,0.7c0.5,0.5,0.8,1,0.8,1.6
	C84.8,187.6,84.7,187.9,84.5,188.2z"/>
<g>
	<g>
		<path class="st6" d="M206.3,36.2c-0.1,0-0.3-0.1-0.3-0.2l0,0c0-0.1-1.1-2.3-4.8-2.8c-0.8-0.1-1.9-0.1-2.9-0.2v2.8
			c0,0.1,0,0.2-0.1,0.3c-0.1,0.1-0.2,0.1-0.3,0l-7.1-4.8c-0.1-0.1-0.1-0.2-0.1-0.3c0-0.1,0.1-0.2,0.2-0.3l7.2-4.8
			c0.1-0.1,0.2-0.1,0.3,0c0.1,0.1,0.1,0.2,0.1,0.3v2.6c1,0.2,8.3,1.4,8.3,7C206.6,36,206.5,36.1,206.3,36.2
			C206.3,36.2,206.3,36.2,206.3,36.2z"/>
	</g>
</g>
<g>
	<path class="st0" d="M137.9,186.2c-0.7-0.8-1.7-1.2-2.8-1.2s-2,0.4-2.8,1.2l-0.4,0.4l-0.4-0.4c-0.7-0.8-1.7-1.2-2.8-1.2
		s-2,0.4-2.8,1.2c-1.5,1.6-1.5,4.2,0,5.8l5.4,5.8c0.1,0.1,0.2,0.2,0.3,0.2c0,0,0.1,0,0.1,0c0.2,0,0.3-0.1,0.4-0.2l5.4-5.8
		C139.4,190.4,139.4,187.8,137.9,186.2z M137,191.1l-5,5.3l-5-5.3c-1-1.1-1-2.9,0-4c0.5-0.5,1.2-0.8,1.9-0.8s1.4,0.3,1.9,0.8
		l0.8,0.8c0.2,0.2,0.6,0.2,0.9,0l0.8-0.8c0.5-0.5,1.2-0.8,1.9-0.8s1.4,0.3,1.9,0.8C138.1,188.2,138.1,190,137,191.1z"/>
</g>
<g>
	<path class="st34" d="M222.4,28.4L215,36c-0.1,0.1-0.2,0.1-0.2,0l-4.2-4.3c-0.1-0.1-0.1-0.2,0-0.2l1-1c0.1-0.1,0.2-0.1,0.2,0
		l3.1,3.1l6.3-6.4c0.1-0.1,0.2-0.1,0.2,0l1,1C222.5,28.2,222.5,28.3,222.4,28.4z"/>
</g>
<g>
	<path class="st0" d="M189.6,169.3c0-4-4.5-7.3-10-7.3c-5.5,0-10,3.3-10,7.3c0,2.5,1.7,4.7,4.3,6l-2.5,4.7l5.4-3.7
		c0.9,0.2,1.8,0.3,2.8,0.3C185.2,176.6,189.6,173.3,189.6,169.3z M177,170h-2v-2h2V170z M183,168h2v2h-2V168z M179,168h2v2h-2V168z"
		/>
</g>
<linearGradient id="SVGID_12_" gradientUnits="userSpaceOnUse" x1="202.96" y1="-113.2568" x2="202.96" y2="-89.2568" gradientTransform="matrix(1 0 0 -1 3.999390e-002 72.7438)">
	<stop  offset="0" style="stop-color:#F15A24"/>
	<stop  offset="1" style="stop-color:#F7931E"/>
</linearGradient>
<path class="st35" d="M203,162c-6.6,0-12,5.4-12,12s5.4,12,12,12s12-5.4,12-12S209.6,162,203,162z M204,181h-2v-3h2V181z
	 M207.6,172.4c-0.3,0.5-1.1,1.2-2.2,2.1c-0.6,0.5-0.9,0.8-1.1,1.1s-0.2,0.5-0.2,1.5h-2.5c0,0,0-0.5,0-0.6c0-0.8,0.1-1.4,0.4-1.9
	c0.3-0.5,0.8-1,1.6-1.7c0.8-0.6,1.3-1,1.4-1.2c0.2-0.3,0.4-0.6,0.4-1c0-0.5-0.2-0.9-0.6-1.3c-0.4-0.4-1-0.5-1.7-0.5
	c-0.7,0-1.3,0.2-1.8,0.6c-0.5,0.4-0.8,1-1,1.7l-2.5-0.3c0.1-1.1,0.6-2,1.5-2.8s2.1-1.2,3.6-1.2c1.6,0,2.8,0.4,3.8,1.2
	s1.4,1.7,1.4,2.7C208.1,171.3,208,171.9,207.6,172.4z"/>
<g>
	<g>
		<circle class="st3" cx="260" cy="62" r="8"/>
		<circle class="st36" cx="260" cy="62" r="8"/>
	</g>
	<defs>
		<filter id="Adobe_OpacityMaskFilter_1_" filterUnits="userSpaceOnUse" x="251.5" y="53.5" width="17" height="17">
			<feColorMatrix  type="matrix" values="1 0 0 0 0  0 1 0 0 0  0 0 1 0 0  0 0 0 1 0"/>
		</filter>
	</defs>
	<mask maskUnits="userSpaceOnUse" x="251.5" y="53.5" width="17" height="17" id="SVGID_4_">
		<g class="st37">
			<g class="st38">
			</g>
		</g>
	</mask>
	<g class="st39">
		<circle cx="260" cy="62" r="8"/>
		<circle class="st40" cx="260" cy="62" r="8"/>
	</g>
</g>
<g>
	<g>
		<g>
			<circle class="st3" cx="260" cy="80" r="8"/>
			<circle class="st36" cx="260" cy="80" r="8"/>
		</g>
		<defs>
			<filter id="Adobe_OpacityMaskFilter_2_" filterUnits="userSpaceOnUse" x="251.5" y="71.5" width="17" height="17">
				<feColorMatrix  type="matrix" values="1 0 0 0 0  0 1 0 0 0  0 0 1 0 0  0 0 0 1 0"/>
			</filter>
		</defs>
		<mask maskUnits="userSpaceOnUse" x="251.5" y="71.5" width="17" height="17" id="SVGID_3_">
			<g class="st41">
				<g class="st38">
				</g>
			</g>
		</mask>
		<g class="st42">
			<circle cx="260" cy="80" r="8"/>
			<circle class="st40" cx="260" cy="80" r="8"/>
		</g>
	</g>
	<g>
		<g>
			
				<linearGradient id="SVGID_13_" gradientUnits="userSpaceOnUse" x1="259.96" y1="-12.2562" x2="259.96" y2="-2.2562" gradientTransform="matrix(1 0 0 -1 3.999390e-002 72.7438)">
				<stop  offset="0" style="stop-color:#088D0B"/>
				<stop  offset="1" style="stop-color:#24CD1B"/>
			</linearGradient>
			<circle class="st43" cx="260" cy="80" r="5"/>
		</g>
		<defs>
			<filter id="Adobe_OpacityMaskFilter_3_" filterUnits="userSpaceOnUse" x="255" y="75" width="10" height="10">
				<feColorMatrix  type="matrix" values="1 0 0 0 0  0 1 0 0 0  0 0 1 0 0  0 0 0 1 0"/>
			</filter>
		</defs>
		<mask maskUnits="userSpaceOnUse" x="255" y="75" width="10" height="10" id="SVGID_2_">
			<g class="st44">
				<g class="st38">
				</g>
			</g>
		</mask>
		<g class="st45">
			<circle cx="260" cy="80" r="5"/>
		</g>
	</g>
</g>
<g>
	<path class="st46" d="M162.5,165.2c-3.2-3.7-7.8-3.6-11.3-0.6c-0.1,0.1-0.1,0.1-0.2,0.2l-1.9-2.1l-1.5,7.7l7.8-0.4l-1.9-2.2
		c0.1,0,0.2,0,0.2-0.1C158.4,163.5,161.5,165,162.5,165.2C162.5,165.3,162.6,165.3,162.5,165.2z"/>
	<path class="st46" d="M164.7,170.7l-7.8,0.4l1.9,2.2c-0.1,0-0.2,0-0.2,0.1c-4.6,4-7.8,2.6-8.6,2.3c-0.1,0-0.2,0-0.1,0.1
		c3.2,3.7,7.8,3.6,11.3,0.6c0.1-0.1,0.1-0.1,0.2-0.2l1.9,2.1L164.7,170.7z"/>
	<g>
		<path class="st46" d="M159.3,180.3"/>
	</g>
</g>
</svg>
